<?xml version="1.0" encoding="UTF-8"?>
<svg width="32" height="32" viewBox="0 0 32 32" fill="none" xmlns="http://www.w3.org/2000/svg">
    <rect width="32" height="32" rx="8" fill="#4F46E5"/>
    <path d="M16 8C12.6863 8 10 10.6863 10 14V18C10 21.3137 12.6863 24 16 24C19.3137 24 22 21.3137 22 18V14C22 10.6863 19.3137 8 16 8ZM16 10C18.2091 10 20 11.7909 20 14V18C20 20.2091 18.2091 22 16 22C13.7909 22 12 20.2091 12 18V14C12 11.7909 13.7909 10 16 10Z" fill="white"/>
    <path d="M16 12C14.8954 12 14 12.8954 14 14V18C14 19.1046 14.8954 20 16 20C17.1046 20 18 19.1046 18 18V14C18 12.8954 17.1046 12 16 12Z" fill="white"/>
</svg>
